<svg id="Layer_1" data-name="Layer 1" xmlns="http://www.w3.org/2000/svg" xmlns:xlink="http://www.w3.org/1999/xlink" viewBox="0 0 1256.52 283.74"><defs><style>.cls-1{fill:url(#radial-gradient);}</style><radialGradient id="radial-gradient" cx="339.17" cy="562.78" r="1238.45" gradientUnits="userSpaceOnUse"><stop offset="0" stop-color="#95d3ff"/><stop offset="1" stop-color="#e1c8ff"/></radialGradient></defs><path class="cls-1" d="M592.08,448.11q-19,0-63.15,27.68-9.51-27.68-47.58-27.68-17.75,0-57.1,24.22l-6.05-16.44c-.29,0-.44-.28-.44-.86q-3-6.91-25.3-6.92T369.32,455L339.48,669.56q-.87,3.9,24.66,6.06,9.93.87,21.84.86T400.46,673a6.49,6.49,0,0,0,1.3-3.46L424.69,505.2q28.11-15.57,43.69-15.57,3.89,0,3.89,9.73a175.2,175.2,0,0,1-1.73,22.71L450.2,669.56q-.85,3.9,24.66,6.06,10,.87,21.84.86T511.2,673a6.67,6.67,0,0,0,1.29-3.46l18.17-131.49a217.42,217.42,0,0,0,2.16-31.57q31.57-16.87,46.28-16.87,3.9,0,3.9,12.11t-3.9,36.33L560.94,669.56q-.87,3.9,24.65,6.06,9.95.87,21.85.86T621.92,673a6.57,6.57,0,0,0,1.3-3.46l18.17-131.49A275,275,0,0,0,644,500q0-19.45-7.35-32Q624.08,448.11,592.08,448.11Z" transform="translate(-339.45 -399.66)"/><path class="cls-1" d="M849.65,446.6q-9.72-2-24.87-2t-16,6.92l-6.91-3.46H781.09q-51.9,0-74,22.92t-31.57,87.81a399.77,399.77,0,0,0-3.89,53q0,24,6.05,38.71,11.25,26,43.26,26a65.92,65.92,0,0,0,32.44-8.65q6-3.45,19.46-11.67l6.49,13.4c-.59,1.74,1.29,3.17,5.61,4.33,2,.28,4.33.65,6.92,1.08s5.48.79,8.65,1.08,8.08.43,14.71.43,10.82-1.15,12.55-3.46a6.75,6.75,0,0,0,1.3-3.46l30.28-218C859.39,449.56,856.14,447.89,849.65,446.6ZM778.07,619.39Q749.95,635,734.38,635q-3.46,0-3.46-7.78T732,607.5q1.08-11.89,6.71-51.69t13.18-53q7.58-13.19,23.58-13.19h20.76Z" transform="translate(-339.45 -399.66)"/><path class="cls-1" d="M1036.28,461.08q-3.46-4.31-12.11-8.65a45.15,45.15,0,0,0-20.33-4.32q-11.69,0-49.74,24.22l-6.49-16.44V455q-2.16-6.91-21.62-6.92T905.65,455L875.82,669.56q-.89,3.9,19.89,6.06c5.76.58,12.55.86,20.33.86s12.54-1.15,14.27-3.46a6.57,6.57,0,0,0,1.3-3.46l22.06-159.17Q977.9,497,985.24,497t15.57,4.76c5.47,3.18,10.17,4.76,14.06,4.76s7.42-2.3,10.6-6.92,8.07-16.15,14.71-34.6Z" transform="translate(-339.45 -399.66)"/><path class="cls-1" d="M1200.64,461.08a59.33,59.33,0,0,0-23.13-10.16q-13.21-2.81-34-2.81-50.61,0-71.58,22.27t-30.5,91a357,357,0,0,0-3.45,49.74q0,25.1,9.51,40.23,14.7,25.08,64,25.08t71.57-25.08q22.29-25.08,31.36-90a265,265,0,0,0,3.9-43.47,148.89,148.89,0,0,0-4.33-37A35.81,35.81,0,0,0,1200.64,461.08Zm-48.22,99.05q-4.12,28.54-6.71,41.31t-8.43,21q-5.85,8.22-12.55,10t-21,1.73q-7.79,0-7.79-20.76t5.4-60.34q5.42-39.59,13.2-51.47t33.74-11.9q8.2,0,8.21,21T1152.42,560.13Z" transform="translate(-339.45 -399.66)"/><path class="cls-1" d="M1405.67,461.08a59.37,59.37,0,0,0-23.14-10.16q-13.21-2.81-34-2.81-50.61,0-71.58,22.27t-30.5,91a358.56,358.56,0,0,0-3.45,49.74q0,25.1,9.51,40.23,14.7,25.08,64,25.08t71.58-25.08q22.27-25.08,31.35-90a265,265,0,0,0,3.9-43.47,148.89,148.89,0,0,0-4.33-37A35.84,35.84,0,0,0,1405.67,461.08Zm-48.23,99.05q-4.12,28.54-6.71,41.31t-8.43,21q-5.85,8.22-12.55,10t-21,1.73q-7.79,0-7.79-20.76t5.4-60.34q5.41-39.59,13.2-51.47t33.74-11.9q8.22,0,8.21,21T1357.44,560.13Z" transform="translate(-339.45 -399.66)"/><path class="cls-1" d="M1590.78,455h-41.52q-.43-18.16-1.08-36.76t-5.84-18.61q-15.15,0-20.76,6.49L1490.44,455,1455,462q-6.93,1.74-9.51,19.89v4.33c0,2.31,1.86,3.46,5.61,3.46h34.61l-16.4,116.89a114.83,114.83,0,0,0,5.6,54.64l5.18,14.46v.86q2.14,6.93,21.84,6.93t21.84-3.46a6.17,6.17,0,0,0,.86-3.47v-49.3l19.47-137.55h42q6.9,0,9.51-17.3.43-4.32.43-7.35C1596,458.35,1594.25,455,1590.78,455Z" transform="translate(-339.45 -399.66)"/></svg>