<svg id="Layer_1" data-name="Layer 1" xmlns="http://www.w3.org/2000/svg" xmlns:xlink="http://www.w3.org/1999/xlink" viewBox="0 0 600 273.29"><defs><style>.cls-1{fill:url(#radial-gradient);}</style><radialGradient id="radial-gradient" cx="197.34" cy="491.47" r="596.6" gradientUnits="userSpaceOnUse"><stop offset="0" stop-color="#fff"/><stop offset="1" stop-color="#fff"/></radialGradient></defs><g id="SVGID"><path class="cls-1" d="M792.67,498.52c7.1,4.1,7.13,10.74.07,14.84L652.28,595c-7,4.09-18.52,4.1-25.62,0l-38.55-22.26c-7.1-4.1-18.57-4.1-25.62,0L460.33,632.1c-7,4.09-18.53,4.09-25.62,0l-38.56-22.27c-7.09-4.09-7.13-10.75-.09-14.84l76.62-44.53c7.05-4.09,7-10.74-.08-14.84L434,513.36c-7.1-4.1-18.57-4.09-25.61,0l-76.62,44.53c-7.05,4.1-18.53,4.09-25.62,0L203.36,498.53c-7.1-4.11-7.13-10.75-.08-14.84l140.46-81.63c7.05-4.1,18.52-4.1,25.62,0l38.55,22.26c7.1,4.1,18.58,4.09,25.63,0L535.69,365c7-4.1,18.54-4.1,25.63,0l38.56,22.26c7.1,4.1,7.13,10.75.08,14.85L497.81,461.42c-7.05,4.1-7,10.74.07,14.84l38.56,22.26c7.1,4.1,18.57,4.1,25.63,0l102.14-59.36c7.06-4.1,18.54-4.1,25.64,0Zm-486.83,0,41.36-24c7.05-4.09,7-10.74-.08-14.84s-18.58-4.09-25.62,0l-41.36,24c-7.05,4.09-7,10.73.08,14.84s18.58,4.09,25.62,0m371.74,37.09,38.3-22.26c7.06-4.1,7-10.74-.08-14.84s-18.56-4.1-25.62,0l-38.3,22.26c-7.06,4.1-7,10.74.08,14.84s18.56,4.1,25.62,0" transform="translate(-198.01 -361.88)"/></g></svg>