<svg id="Layer_1" data-name="Layer 1" xmlns="http://www.w3.org/2000/svg" viewBox="0 0 1240.59 775.8"><defs><style>.cls-1{fill:#fff;}</style></defs><g id="SVGID"><path class="cls-1" d="M1511.72,933.65c9.9,17.14,1.93,31.07-17.77,31.12l-392.19,1.12c-19.67.05-43.66-13.78-53.56-30.93l-53.74-93.08c-9.9-17.14-33.86-31-53.56-30.92l-285.24.81C636,811.82,612,798,602.1,780.84l-53.76-93.1c-9.88-17.12-1.93-31.07,17.74-31.13L780,656c19.67-.06,27.63-14,17.74-31.13L744,531.8c-9.9-17.14-33.9-31-53.56-30.92l-213.94.61c-19.67.05-43.68-13.81-53.57-30.93L279.64,222.33c-9.9-17.15-1.93-31.07,17.74-31.13l392.19-1.11c19.7-.05,43.66,13.78,53.56,30.93l53.74,93.07c9.9,17.15,33.89,31,53.59,30.93l285.21-.81c19.7-.06,43.71,13.8,53.59,30.92L1243,468.24c9.88,17.11,1.93,31.07-17.77,31.12L940,500.17c-19.7.06-27.67,14-17.77,31.13L976,624.38c9.9,17.14,33.89,31,53.59,30.92l285.21-.81c19.7,0,43.71,13.81,53.59,30.93ZM493.89,346l115.49-.33c19.67-.06,27.64-14,17.74-31.13s-33.9-31-53.57-30.92L458.07,284c-19.67,0-27.64,14-17.74,31.12s33.89,31,53.56,30.93M1226.31,872.3l107-.3c19.7-.06,27.64-14,17.74-31.13s-33.86-31-53.56-30.92l-107,.3c-19.71.06-27.64,14-17.74,31.13s33.86,31,53.56,30.92" transform="translate(-275.38 -190.09)"/></g></svg>